<svg width="28" height="16" viewBox="0 0 28 16" fill="none" xmlns="http://www.w3.org/2000/svg">
<path d="M7.71094 3V5.5H0.484375V3H7.71094ZM2.125 0.125H5.45313V11.3125C5.45313 11.6198 5.5 11.8594 5.59375 12.0312C5.6875 12.1979 5.81771 12.3151 5.98438 12.3828C6.15625 12.4505 6.35417 12.4844 6.57813 12.4844C6.73438 12.4844 6.89063 12.4714 7.04688 12.4453C7.20312 12.4141 7.32292 12.3906 7.40625 12.375L7.92969 14.8516C7.76302 14.9036 7.52865 14.9635 7.22656 15.0313C6.92448 15.1042 6.55729 15.1484 6.125 15.1641C5.32292 15.1953 4.61979 15.0885 4.01563 14.8437C3.41667 14.599 2.95052 14.2187 2.61719 13.7031C2.28385 13.1875 2.11979 12.5365 2.125 11.75V0.125ZM9.87891 15V3H13.0508V5.11719H13.1914C13.4414 4.41406 13.8581 3.85937 14.4414 3.45312C15.0247 3.04687 15.7227 2.84375 16.5352 2.84375C17.3581 2.84375 18.0586 3.04948 18.6367 3.46094C19.2148 3.86719 19.6003 4.41927 19.793 5.11719H19.918C20.1628 4.42969 20.6055 3.88021 21.2461 3.46875C21.8919 3.05208 22.6549 2.84375 23.5352 2.84375C24.6549 2.84375 25.5638 3.20052 26.2617 3.91406C26.9648 4.6224 27.3164 5.6276 27.3164 6.92969V15H23.9961V7.58594C23.9961 6.91927 23.819 6.41927 23.4648 6.08594C23.1107 5.7526 22.668 5.58594 22.1367 5.58594C21.5326 5.58594 21.0612 5.77865 20.7227 6.16406C20.3841 6.54427 20.2148 7.04687 20.2148 7.67187V15H16.9883V7.51562C16.9883 6.92708 16.819 6.45833 16.4805 6.10937C16.1471 5.76042 15.707 5.58594 15.1602 5.58594C14.7904 5.58594 14.457 5.67969 14.1602 5.86719C13.8685 6.04948 13.6367 6.30729 13.4648 6.64062C13.293 6.96875 13.207 7.35417 13.207 7.79687V15H9.87891Z" fill="#89C5CC"/>
</svg>